<svg width="430" height="460" viewBox="0 0 430 460" fill="none" xmlns="http://www.w3.org/2000/svg">
<path d="M339.372 263.537C331.867 286.634 317.243 306.762 297.595 321.037C277.948 335.312 254.286 343 230 343C205.714 343 182.052 335.312 162.405 321.037C142.757 306.762 128.133 286.634 120.629 263.537" stroke="#3ACD6B" stroke-width="30"/>
<path d="M120.628 192.463C128.133 169.366 142.757 149.238 162.405 134.963C182.052 120.688 205.714 113 230 113C254.286 113 277.948 120.688 297.595 134.963C317.243 149.238 331.867 169.366 339.371 192.463" stroke="#3ACD6B" stroke-width="30"/>
<path d="M401.707 100.61C374.382 64.3489 336.28 37.6692 292.86 24.3945C249.44 11.1198 202.933 11.9316 160.003 26.7135C117.073 41.4955 79.9247 69.4887 53.8823 106.681C27.8399 143.873 14.2403 188.356 15.0327 233.752C15.8251 279.149 30.9688 323.129 58.2934 359.39C85.6179 395.651 123.72 422.331 167.14 435.605C210.56 448.88 257.067 448.068 299.997 433.286C342.927 418.505 380.075 390.511 406.118 353.319" stroke="#1F7037" stroke-width="30"/>
<path d="M385.558 172.235C371.804 135.435 345.371 104.749 311.012 85.6979C276.653 66.6468 236.624 60.4805 198.125 68.3082C159.626 76.1358 125.183 97.4436 100.991 128.399C76.7998 159.355 64.4475 197.926 66.1561 237.176" stroke="#222979" stroke-width="30"/>
<path d="M76.4184 287.702C90.1575 324.508 116.579 355.205 150.93 374.27C185.281 393.335 225.307 399.517 263.81 391.705C302.312 383.893 336.764 362.599 360.968 331.653C385.172 300.707 397.54 262.141 395.847 222.89" stroke="#222979" stroke-width="30"/>
<path d="M51 232H107.753H161" stroke="#222979" stroke-width="30"/>
<path d="M411 230L354.247 230L301 230" stroke="#222979" stroke-width="30"/>
<path fill-rule="evenodd" clip-rule="evenodd" d="M229.807 169C250.69 182.215 269.557 188.467 285.748 186.989C288.576 244.087 267.454 277.807 230.023 291.88C193.877 278.708 172.497 246.439 174.082 186.123C193.09 187.116 211.737 183.014 229.807 169ZM215.528 225.508H216.968V222.177C216.968 218.488 218.425 215.126 220.772 212.683C223.137 210.221 226.403 208.692 230.001 208.692C233.599 208.692 236.867 210.221 239.231 212.683C241.578 215.126 243.034 218.488 243.034 222.177V225.508H244.475C245.644 225.508 246.602 226.463 246.602 227.631V250.065C246.602 251.233 245.644 252.188 244.475 252.188H215.528C214.358 252.188 213.401 251.233 213.401 250.065V227.631C213.4 226.463 214.358 225.508 215.528 225.508ZM228.255 240.286L225.961 246.286H234.04L231.915 240.204C233.264 239.511 234.186 238.107 234.186 236.488C234.186 234.18 232.312 232.309 230 232.309C227.688 232.309 225.815 234.18 225.815 236.488C225.815 238.173 226.815 239.625 228.255 240.286ZM220.995 225.508H239.007V222.177C239.007 219.554 237.984 217.178 236.336 215.462C234.706 213.765 232.464 212.711 230 212.711C227.538 212.711 225.294 213.765 223.666 215.462C222.017 217.178 220.995 219.554 220.995 222.177V225.508Z" fill="#17BDEE"/>
</svg>
